<svg xmlns="http://www.w3.org/2000/svg" viewBox="0 0 128 128"><defs><linearGradient id="g" x1="0" y1="0" x2="1" y2="1"><stop offset="0" stop-color="#2563eb"/><stop offset="1" stop-color="#7c3aed"/></linearGradient></defs><rect width="128" height="128" rx="26" fill="url(#g)"/><g fill="#fff" transform="translate(22 26)"><path d="M30 0c16.569 0 30 13.431 30 30s-13.431 30-30 30S0 46.569 0 30 13.431 0 30 0zm0 10c-11.046 0-20 8.954-20 20 0 5.523 2.239 10.523 5.857 14.143L10 60l15.857-5.857A19.936 19.936 0 0 0 50 30c0-11.046-8.954-20-20-20z"/></g></svg>
